<?xml version="1.0" standalone="no"?>
<!DOCTYPE svg PUBLIC "-//W3C//DTD SVG 20010904//EN"
 "http://www.w3.org/TR/2001/REC-SVG-20010904/DTD/svg10.dtd">
<svg version="1.0" xmlns="http://www.w3.org/2000/svg"
 width="1280.000000pt" height="942.000000pt" viewBox="0 0 1280.000000 942.000000"
 preserveAspectRatio="xMidYMid meet">
<metadata>
Created by potrace 1.15, written by Peter Selinger 2001-2017
</metadata>
<g transform="translate(0.000000,942.000000) scale(0.100000,-0.100000)"
fill="#009ab9" stroke="none">
<path d="M10920 9410 c-136 -14 -184 -35 -240 -105 -57 -71 -73 -114 -78 -201
-7 -123 14 -180 91 -259 96 -98 95 -98 560 -103 213 -2 387 -7 387 -11 0 -11
-941 -945 -974 -966 l-27 -18 -102 70 c-412 284 -838 451 -1262 494 -157 16
-640 6 -780 -16 -232 -36 -464 -111 -709 -229 -196 -94 -276 -141 -276 -161 0
-7 74 -82 165 -166 134 -124 271 -268 306 -321 3 -6 64 15 135 46 335 143 576
184 964 165 266 -14 436 -53 662 -154 374 -167 692 -444 898 -780 69 -112 165
-316 204 -434 170 -514 108 -1143 -159 -1597 -298 -506 -819 -877 -1377 -980
-117 -22 -464 -30 -613 -14 -302 30 -620 155 -861 336 -160 120 -322 286
-1013 1039 -197 215 -377 408 -399 429 l-41 39 -35 -30 c-43 -39 -404 -416
-424 -444 -13 -18 -1 -33 170 -222 769 -850 1077 -1174 1238 -1304 137 -110
345 -237 521 -318 178 -82 372 -140 647 -195 138 -27 171 -30 345 -30 563 0
877 67 1297 276 271 135 461 268 667 468 451 435 726 984 809 1616 20 159 15
540 -10 700 -63 396 -195 751 -399 1075 l-76 120 487 488 487 487 6 -292 c8
-395 22 -446 141 -534 75 -55 119 -67 227 -62 102 4 140 20 217 90 69 64 81
104 95 315 15 225 7 1424 -10 1476 -18 55 -108 156 -164 185 -46 24 -56 25
-355 33 -376 10 -1239 9 -1342 -1z"/>
<path d="M2415 8320 c-652 -54 -1320 -401 -1760 -912 -415 -483 -629 -1028
-651 -1658 -21 -584 127 -1113 441 -1585 108 -162 193 -264 339 -411 229 -229
443 -383 721 -519 248 -121 425 -180 693 -231 l142 -27 0 -644 0 -643 -385 0
c-246 0 -403 -4 -437 -11 -123 -26 -216 -101 -244 -195 -24 -84 -17 -242 15
-307 27 -56 88 -105 171 -139 53 -22 67 -23 468 -26 l412 -3 1 -302 c1 -368 7
-456 39 -520 32 -64 101 -134 156 -158 100 -45 255 -33 341 24 52 35 116 120
134 176 7 22 14 176 18 406 l6 370 395 6 c417 7 474 11 530 39 50 26 115 97
142 155 19 41 23 67 23 145 0 82 -4 103 -26 150 -31 65 -84 122 -141 151 -54
28 -203 38 -539 39 -146 0 -294 3 -328 6 l-61 7 0 637 0 637 118 23 c279 54
461 116 749 255 185 89 233 118 233 140 0 8 -33 40 -72 71 -40 31 -153 137
-250 236 l-177 178 -133 -54 c-515 -210 -975 -230 -1465 -62 -634 216 -1117
745 -1293 1412 -31 120 -43 300 -37 564 7 262 15 318 75 497 155 463 421 816
811 1077 222 148 497 254 786 302 127 22 441 24 575 5 382 -54 771 -225 1006
-442 132 -122 264 -265 808 -876 284 -321 521 -583 525 -583 4 0 115 110 246
246 l238 245 -25 27 c-127 138 -453 505 -632 712 -384 445 -663 737 -801 842
-283 213 -741 419 -1076 483 -212 40 -612 62 -824 45z"/>
<path d="M5670 8319 c-294 -12 -448 -39 -698 -123 -218 -74 -376 -145 -535
-239 l-68 -40 243 -246 c134 -135 248 -247 254 -249 7 -2 71 22 143 52 158 67
295 110 416 132 121 21 502 30 663 15 231 -21 491 -111 725 -251 858 -511
1218 -1539 857 -2445 -17 -44 -68 -151 -112 -237 -59 -114 -79 -163 -75 -180
8 -29 181 -222 268 -299 90 -79 188 -149 208 -149 71 0 332 492 425 800 76
254 105 433 113 700 8 296 -18 525 -91 791 -97 352 -276 703 -503 984 -98 121
-317 337 -433 427 -417 322 -947 531 -1405 553 -60 3 -135 7 -165 8 -30 2
-134 0 -230 -4z"/>
<path d="M3644 7228 c-89 -100 -244 -376 -323 -575 -112 -282 -164 -532 -180
-859 -20 -393 30 -742 154 -1080 45 -122 177 -393 241 -494 377 -593 958
-1012 1634 -1178 261 -65 332 -73 604 -72 273 0 380 9 561 46 314 63 611 175
854 322 42 25 78 46 80 48 2 2 -108 118 -244 258 l-247 255 -41 -21 c-368
-187 -808 -264 -1192 -207 -326 48 -679 198 -948 401 -108 82 -287 262 -368
370 -169 228 -307 519 -363 768 -43 189 -47 652 -7 842 42 205 172 524 277
679 32 48 34 55 22 77 -54 101 -423 442 -479 442 -8 0 -24 -10 -35 -22z"/>
<path d="M6639 6943 c-471 -475 -2101 -2171 -2265 -2359 l-55 -63 17 -32 c38
-74 284 -306 421 -397 l52 -34 224 228 c711 729 2314 2406 2324 2431 3 7 -18
41 -45 75 -87 109 -392 398 -420 398 -4 0 -118 -111 -253 -247z"/>
</g>
</svg>
