<?xml version="1.0" standalone="no"?>
<!DOCTYPE svg PUBLIC "-//W3C//DTD SVG 20010904//EN"
 "http://www.w3.org/TR/2001/REC-SVG-20010904/DTD/svg10.dtd">
<svg version="1.0" xmlns="http://www.w3.org/2000/svg"
 width="640.000000pt" height="1280.000000pt" viewBox="0 0 640.000000 1280.000000"
 preserveAspectRatio="xMidYMid meet">
<metadata>
Created by potrace 1.15, written by Peter Selinger 2001-2017
</metadata>
<g transform="translate(0.000000,1280.000000) scale(0.100000,-0.100000)"
fill="#e91e63" stroke="none">
<path d="M2955 12776 c-92 -43 -153 -133 -140 -205 l7 -35 -46 42 c-36 33 -53
42 -81 42 -43 0 -85 -37 -85 -74 0 -23 -3 -25 -29 -20 -29 6 -62 -15 -73 -46
-3 -10 -18 -8 -61 9 -32 11 -69 21 -83 21 -76 0 -148 -83 -150 -171 0 -33 -6
-51 -22 -67 -12 -12 -22 -33 -22 -46 0 -19 -7 -26 -31 -31 -31 -7 -59 -50 -59
-92 0 -15 -9 -18 -48 -18 -61 0 -127 -33 -198 -98 -66 -60 -114 -138 -114
-187 0 -19 9 -50 21 -69 l20 -33 -20 -19 c-12 -11 -24 -31 -27 -44 -7 -27 -1
-91 10 -116 11 -26 -25 -34 -44 -11 -15 19 -19 18 -199 -40 l-183 -59 6 -87
c3 -48 8 -241 12 -429 4 -189 9 -343 11 -343 3 0 70 14 150 30 79 17 153 30
165 30 50 0 -4 -17 -154 -47 -88 -18 -162 -34 -163 -35 -3 -5 12 -779 16 -782
2 -2 119 5 259 15 140 10 325 22 410 26 l155 8 5 184 c4 147 7 181 17 169 8
-9 15 -74 19 -182 l7 -168 108 4 c86 3 105 1 97 -9 -7 -9 -42 -13 -109 -13
l-99 0 0 -109 c0 -94 -3 -112 -20 -132 l-19 -24 -1 129 0 129 -137 -6 c-208
-10 -688 -40 -692 -43 -2 -2 0 -253 4 -558 l8 -556 23 6 c17 4 26 1 30 -10 10
-27 -5 -65 -29 -71 -20 -5 -22 -10 -19 -73 2 -36 10 -75 18 -86 18 -26 18 -50
-1 -66 -19 -16 -20 -84 -2 -99 11 -8 18 -6 32 9 36 40 95 15 95 -39 0 -33 -20
-53 -54 -53 -17 0 -28 -10 -40 -34 -8 -19 -20 -34 -26 -34 -6 0 -10 -47 -10
-126 0 -111 2 -125 16 -120 9 3 27 6 41 6 25 0 25 1 10 18 -21 23 -22 46 -1
67 12 12 19 13 30 4 17 -14 19 -69 2 -69 -6 0 -9 -3 -6 -6 4 -3 80 6 170 20
171 27 515 76 529 76 5 0 9 23 9 51 0 43 3 50 16 45 9 -3 18 -6 20 -6 2 0 4
-19 4 -41 l0 -42 45 5 c61 7 67 -8 7 -16 l-48 -6 -3 -488 c-5 -793 -4 -887 13
-1042 19 -164 21 -446 6 -813 -5 -127 -8 -233 -6 -235 5 -4 192 16 218 24 12
4 19 -2 23 -18 87 -382 151 -653 173 -729 l28 -97 -24 -47 c-56 -110 -148
-329 -191 -455 l-46 -135 1 -145 c2 -150 23 -329 148 -1255 120 -885 120 -889
119 -1126 -1 -182 -23 -452 -37 -466 -2 -2 -83 -12 -182 -23 -476 -54 -895
-157 -1055 -258 -206 -132 -139 -263 195 -381 273 -96 663 -162 1236 -208 303
-24 1134 -24 1440 0 771 61 1287 175 1481 328 256 202 -227 425 -1122 519
-112 11 -222 23 -245 26 l-41 5 9 57 c5 31 17 91 27 134 24 103 19 118 -107
298 -25 36 -41 85 -81 250 -89 366 -116 496 -155 755 -142 947 -185 1202 -245
1462 -46 201 -59 228 -161 336 -68 72 -259 247 -299 274 -2 1 3 26 12 55 123
420 214 745 272 969 l27 105 71 18 c70 18 508 142 597 169 43 13 45 17 52 58
6 40 11 699 6 699 -2 0 -95 -11 -208 -24 -113 -13 -207 -22 -209 -20 -15 14
36 25 212 47 109 14 201 27 204 30 2 3 1 101 -3 217 l-7 212 -153 -3 c-85 -2
-154 -1 -154 2 0 10 96 19 201 19 53 0 98 2 100 4 6 6 -7 294 -31 694 l-20
342 20 28 21 29 317 17 c174 10 320 20 325 23 4 2 7 218 7 479 l0 474 -87 -1
c-49 0 -153 -4 -233 -8 -80 -4 -149 -4 -153 0 -12 10 47 17 188 24 66 3 157 8
202 11 l81 6 1 334 2 334 -387 0 -387 0 6 -67 5 -68 -24 45 c-12 25 -23 55
-24 67 0 12 -6 23 -12 26 -10 3 -10 7 -2 18 8 10 7 82 -5 261 -13 221 -13 251
0 279 16 34 18 20 47 -436 l7 -100 38 1 c20 0 194 1 386 2 l349 2 6 93 c3 50
11 242 17 425 11 310 11 333 -5 351 -31 34 -31 91 -2 134 20 28 26 50 26 88
l0 51 -57 -6 c-32 -3 -146 -13 -253 -21 -107 -9 -244 -20 -305 -25 -64 -6
-113 -6 -118 -1 -11 11 14 14 428 49 l310 27 8 300 c5 165 6 342 2 394 l-7 94
-337 -6 c-315 -5 -337 -4 -358 13 -31 25 -14 30 101 30 167 0 306 12 306 26 0
17 15 26 51 28 24 2 29 -2 29 -21 0 -14 6 -23 15 -23 8 0 15 7 15 15 0 8 5 15
10 15 6 0 10 -7 10 -15 0 -17 35 -19 114 -9 45 7 46 7 46 43 0 20 -11 59 -25
86 -13 28 -25 56 -25 64 0 12 -35 13 -222 7 -123 -4 -239 -9 -259 -12 -36 -6
-36 -7 -18 -25 23 -23 24 -38 3 -67 -20 -29 -79 -31 -94 -3 -15 28 -12 52 8
74 17 19 16 19 -63 13 -44 -4 -98 -10 -119 -13 -35 -5 -38 -3 -31 13 25 62 11
94 -51 114 -29 10 -32 14 -24 30 21 39 11 78 -30 121 -32 34 -44 40 -65 35
l-25 -6 16 34 c20 41 14 73 -23 117 -53 62 -125 74 -210 34 l-53 -24 0 29 c0
55 -54 78 -105 44 l-25 -16 0 37 c0 54 -15 75 -53 75 -18 0 -38 -5 -45 -12 -9
-9 -12 -4 -12 25 0 55 -35 87 -95 87 -55 0 -93 -18 -129 -61 -15 -17 -28 -30
-30 -28 -1 2 -8 19 -16 37 -15 40 -48 63 -117 85 -68 22 -88 21 -148 -7z
m1945 -860 c0 -8 -4 -17 -9 -21 -12 -7 -24 12 -16 25 9 15 25 12 25 -4z m68
-44 c2 -7 -3 -12 -12 -12 -9 0 -16 7 -16 16 0 17 22 14 28 -4z m-148 -356 c0
-21 -20 -30 -33 -17 -9 9 -8 14 3 21 21 14 30 12 30 -4z m-3195 -78 c16 -7 25
-19 25 -35 0 -13 7 -37 15 -54 15 -28 14 -30 -9 -54 -71 -71 -183 17 -135 106
8 16 53 44 76 49 1 0 14 -5 28 -12z m3263 -321 c2 -10 -3 -17 -12 -17 -18 0
-29 16 -21 31 9 14 29 6 33 -14z m70 -173 c24 -17 30 -62 10 -82 -17 -17 -64
-15 -82 4 -23 22 -20 60 6 78 12 9 27 16 33 16 6 0 21 -7 33 -16z m-68 -154
c0 -5 -4 -10 -10 -10 -5 0 -10 5 -10 10 0 6 5 10 10 10 6 0 10 -4 10 -10z
m-720 -270 c0 -5 -2 -10 -4 -10 -3 0 -8 5 -11 10 -3 6 -1 10 4 10 6 0 11 -4
11 -10z m-2430 -151 c0 -20 -24 -26 -35 -9 -8 13 14 42 26 34 5 -3 9 -14 9
-25z m-257 -10 c16 -26 0 -69 -26 -69 -44 0 -62 43 -31 75 19 19 43 16 57 -6z
m2967 -99 c0 -5 -6 -10 -14 -10 -8 0 -18 5 -21 10 -3 6 3 10 14 10 12 0 21 -4
21 -10z m-2949 -100 c40 -22 61 -98 39 -141 -13 -24 -61 -49 -94 -49 -38 0
-86 48 -93 92 -5 33 -2 41 30 73 37 37 78 46 118 25z m3000 0 c39 -21 16 -70
-33 -70 -24 0 -28 4 -28 28 0 27 15 52 33 52 4 0 17 -5 28 -10z m394 -80 c0
-22 -29 -18 -33 3 -3 14 1 18 15 15 10 -2 18 -10 18 -18z m-2436 -138 c10 -56
15 -104 11 -107 -6 -4 -41 183 -39 215 1 26 8 -2 28 -108z m-644 14 c34 -52
-36 -114 -79 -70 -21 20 -20 53 1 76 23 26 59 23 78 -6z m2545 9 c0 -8 -7 -15
-15 -15 -8 0 -15 7 -15 15 0 8 7 15 15 15 8 0 15 -7 15 -15z m565 -5 c3 -5 -1
-10 -9 -10 -9 0 -16 5 -16 10 0 6 4 10 9 10 6 0 13 -4 16 -10z m-95 -20 c0 -5
-7 -10 -15 -10 -8 0 -15 5 -15 10 0 6 7 10 15 10 8 0 15 -4 15 -10z m-220 -16
c0 -8 -5 -12 -10 -9 -6 4 -8 11 -5 16 9 14 15 11 15 -7z m-2592 -77 c4 -20
-25 -34 -40 -19 -15 15 -1 44 19 40 10 -2 19 -11 21 -21z m-178 -14 c0 -5 -4
-15 -10 -23 -11 -18 -25 -7 -17 15 6 15 27 21 27 8z m-205 -142 c3 -5 1 -13
-5 -16 -15 -9 -43 3 -35 15 8 13 32 13 40 1z m3041 -156 c10 -25 -7 -40 -23
-20 -7 11 -13 22 -13 27 0 14 30 9 36 -7z m-2112 -433 c8 -90 17 -166 20 -169
2 -3 54 2 115 11 129 19 121 18 121 7 0 -4 -49 -14 -109 -21 -60 -7 -114 -16
-120 -19 -8 -6 -8 -66 3 -237 8 -126 18 -290 21 -364 3 -74 9 -147 11 -163 4
-19 1 -29 -11 -33 -9 -4 -18 -5 -20 -3 -2 2 -10 150 -19 329 -9 179 -19 357
-22 397 -6 71 -7 72 -33 67 -53 -9 -290 -44 -300 -44 -8 0 -11 -88 -11 -277
-1 -278 -1 -278 -20 -254 -19 22 -20 39 -20 272 0 192 -3 249 -12 250 -10 0
-10 2 0 6 7 3 12 23 12 52 0 43 12 71 32 71 4 0 8 -25 8 -55 0 -33 4 -55 11
-55 15 0 323 52 327 55 1 1 -2 75 -9 164 -6 89 -8 170 -4 179 11 25 13 12 29
-166z m1561 -22 c3 -6 -4 -10 -17 -10 -13 0 -47 -3 -75 -6 -35 -5 -53 -3 -53
4 0 6 21 13 48 15 26 2 57 4 69 5 12 1 25 -2 28 -8z m145 -227 c32 -54 40
-176 14 -223 l-18 -35 -7 60 c-8 75 -18 235 -14 235 2 0 13 -17 25 -37z
m-2137 -10 c-7 -2 -19 -2 -25 0 -7 3 -2 5 12 5 14 0 19 -2 13 -5z m-56 -9 c-3
-3 -12 -4 -19 -1 -8 3 -5 6 6 6 11 1 17 -2 13 -5z m2889 -468 c18 -14 18 -15
-9 -21 -34 -9 -61 10 -37 25 20 13 23 12 46 -4z m-3316 -131 c18 -22 0 -37
-24 -20 -10 8 -15 18 -11 24 9 15 20 14 35 -4z m2370 -150 c-10 -12 -36 -15
-113 -15 -118 0 -120 13 -4 21 45 3 93 6 106 7 20 2 22 0 11 -13z m-875 -4200
c424 -1007 724 -1848 805 -2255 l23 -115 -41 -220 c-23 -121 -47 -253 -54
-293 l-13 -73 -405 -5 c-223 -2 -416 -6 -429 -7 -27 -2 -19 -25 -91 243 -39
141 -50 239 -50 440 0 337 34 1194 70 1760 22 334 56 730 67 764 7 25 3 34
118 -239z"/>
<path d="M5230 12030 c0 -33 -39 -96 -67 -109 -13 -6 -39 -11 -58 -11 -32 0
-35 -2 -35 -30 0 -37 17 -39 45 -5 12 16 34 28 57 32 32 5 41 1 68 -26 31 -31
33 -31 131 -31 111 0 114 2 80 68 -35 68 -102 116 -180 128 -38 6 -41 5 -41
-16z m84 -23 c22 -16 18 -55 -6 -71 -40 -24 -80 44 -42 71 10 7 21 13 24 13 3
0 14 -6 24 -13z"/>
<path d="M5080 11793 c0 -5 -1 -182 -4 -395 l-4 -388 27 0 c58 1 472 37 476
42 6 6 -30 320 -66 591 l-22 157 -113 0 c-69 0 -114 -4 -114 -10 0 -24 -41
-50 -79 -50 -31 0 -44 6 -64 30 -25 30 -37 37 -37 23z m220 -68 c0 -8 -4 -15
-10 -15 -5 0 -10 7 -10 15 0 8 5 15 10 15 6 0 10 -7 10 -15z m-130 -125 c0 -5
-7 -10 -15 -10 -8 0 -15 5 -15 10 0 6 7 10 15 10 8 0 15 -4 15 -10z m57 -96
c8 -21 -13 -42 -28 -27 -13 13 -5 43 11 43 6 0 13 -7 17 -16z m-57 -284 c0 -5
-7 -10 -15 -10 -8 0 -15 5 -15 10 0 6 7 10 15 10 8 0 15 -4 15 -10z"/>
<path d="M1170 11356 c-50 -22 -74 -37 -71 -47 10 -38 3 -73 -18 -91 -32 -25
-68 -23 -96 8 -20 22 -27 24 -40 14 -13 -11 -13 -15 1 -42 32 -61 -15 -133
-86 -133 -22 0 -46 8 -57 18 -11 9 -22 17 -26 17 -12 0 -97 -128 -120 -181
-13 -30 -32 -84 -42 -121 -17 -66 -17 -69 6 -213 12 -80 26 -150 29 -155 10
-17 122 9 138 31 14 21 61 26 78 9 9 -9 261 33 399 66 20 5 20 12 18 377 -3
398 -7 477 -26 476 -7 0 -46 -15 -87 -33z m-116 -351 c8 -23 -32 -41 -51 -22
-9 8 -12 20 -9 26 10 16 53 13 60 -4z m-205 -54 c17 -11 7 -41 -13 -41 -19 0
-29 17 -22 35 6 17 15 18 35 6z m129 -138 c-4 -22 -38 -30 -38 -10 0 14 13 24
33 26 5 1 7 -7 5 -16z"/>
<path d="M5290 11000 c-118 -10 -216 -18 -217 -19 -2 0 -3 -21 -3 -45 0 -42 2
-44 33 -50 68 -13 105 -92 73 -153 -14 -27 -14 -32 -1 -43 8 -7 15 -23 15 -36
0 -42 -65 -43 -76 0 -3 14 -13 21 -28 21 -23 0 -24 -4 -30 -80 -3 -44 -11
-230 -17 -414 -10 -283 -10 -334 2 -342 8 -5 55 -9 104 -10 82 -2 85 -2 40 -9
-27 -5 -74 -9 -102 -9 l-53 -1 0 -87 c0 -49 -3 -200 -7 -337 l-6 -249 94 8
c52 4 98 12 102 18 6 9 10 9 14 0 8 -22 90 -16 114 8 19 19 22 19 38 4 15 -13
39 -15 141 -13 88 2 125 7 128 16 2 7 -5 12 -18 12 -67 0 -92 68 -33 91 17 6
33 5 53 -6 16 -8 31 -15 35 -15 3 0 5 29 5 65 l0 65 -35 0 c-82 0 -117 101
-54 154 17 14 42 26 56 26 l25 0 -6 148 c-20 421 -53 917 -63 942 -3 8 -5 39
-4 68 2 41 0 52 -12 52 -45 0 -62 67 -24 97 22 18 26 57 12 121 -6 26 5 26
-295 2z m136 -241 c3 -6 -1 -18 -9 -27 -13 -12 -19 -13 -31 -3 -8 7 -12 19 -9
27 6 17 39 19 49 3z m164 -29 c0 -5 -4 -10 -10 -10 -5 0 -10 5 -10 10 0 6 5
10 10 10 6 0 10 -4 10 -10z m-305 -105 c0 -22 -31 -33 -48 -16 -7 7 -6 15 3
26 17 21 45 15 45 -10z m345 -774 c14 -27 13 -37 -6 -55 -23 -23 -51 -20 -69
8 -13 19 -14 29 -5 45 14 28 65 29 80 2z m-507 -523 c-10 -21 -12 -21 -18 -5
-10 25 2 54 17 39 8 -8 8 -18 1 -34z m297 17 c0 -25 -23 -35 -35 -15 -10 16 2
40 20 40 9 0 15 -9 15 -25z"/>
<path d="M581 10534 c-1 -34 -4 -76 -7 -93 -6 -27 -4 -31 16 -31 22 0 22 2 15
65 -3 35 -10 77 -15 92 -7 23 -8 16 -9 -33z"/>
<path d="M1071 10481 c-163 -32 -185 -39 -194 -59 -14 -30 -49 -37 -88 -18
-24 12 -46 14 -81 10 -27 -4 -50 -10 -53 -14 -2 -4 0 -22 5 -41 5 -19 28 -179
52 -357 l43 -323 30 5 c16 3 120 15 230 26 110 11 220 23 244 26 l44 6 -7 60
c-3 34 -6 106 -6 162 0 94 -2 102 -22 111 -49 22 -49 68 0 90 21 9 22 15 22
182 0 159 -1 173 -17 172 -10 -1 -101 -18 -202 -38z m-91 -71 c20 -37 -22 -80
-59 -61 -37 21 -36 66 3 81 26 9 44 3 56 -20z m-178 -131 c-4 -56 -16 -68 -42
-44 -26 24 -25 60 2 79 33 23 43 14 40 -35z"/>
<path d="M588 10393 c-10 -3 -18 -13 -18 -24 0 -24 6 -24 31 0 22 20 16 30
-13 24z"/>
<path d="M570 10083 c0 -115 3 -258 7 -317 l6 -107 61 7 c34 4 63 8 65 10 4 4
-9 112 -51 427 -17 124 -25 157 -36 157 -9 0 -24 7 -34 17 -17 16 -18 9 -18
-194z"/>
<path d="M1195 9714 c-16 -2 -121 -14 -232 -26 -170 -18 -203 -24 -203 -37 0
-9 16 -140 34 -291 19 -151 38 -308 42 -348 5 -56 11 -75 25 -83 20 -10 26
-54 9 -64 -5 -3 -10 -27 -10 -52 0 -38 3 -44 16 -39 38 15 76 -22 53 -50 -6
-8 -22 -14 -36 -14 -22 0 -23 -3 -18 -32 6 -37 67 -594 86 -791 7 -70 16 -132
19 -137 4 -7 40 -4 101 9 52 10 127 24 167 31 l72 12 0 119 c0 118 0 119 -25
125 -80 20 -86 145 -9 174 28 11 34 60 9 80 -18 15 -20 58 -2 79 11 13 12 143
9 679 l-4 662 -37 -1 c-20 -1 -49 -4 -66 -5z m-105 -148 c0 -2 -3 -11 -6 -20
-9 -23 -24 -20 -24 4 0 11 7 20 15 20 8 0 15 -2 15 -4z m140 -1036 c0 -20 -32
-60 -49 -60 -43 0 -55 39 -19 64 33 23 68 21 68 -4z m57 -666 c7 -18 -3 -29
-35 -39 -24 -7 -39 13 -28 40 7 20 55 19 63 -1z"/>
<path d="M635 9651 l-50 -6 2 -310 c2 -323 14 -686 38 -1135 8 -146 18 -320
21 -387 4 -67 10 -126 14 -132 4 -8 47 -2 134 18 71 17 130 32 133 35 6 6 -27
332 -107 1031 -101 887 -102 895 -119 893 -9 0 -38 -4 -66 -7z m73 -588 c-25
-25 -28 -25 -34 -8 -9 23 33 62 50 45 7 -7 2 -18 -16 -37z m112 -454 c18 -32
4 -71 -23 -67 -35 5 -38 88 -3 88 9 0 20 -9 26 -21z"/>
<path d="M5280 9128 c-129 -5 -241 -11 -247 -13 -10 -3 -13 -108 -13 -478 0
-261 2 -476 4 -478 5 -5 657 29 663 34 1 2 3 144 3 315 1 304 1 313 -20 340
-15 18 -20 35 -16 54 4 20 1 28 -9 28 -29 0 -66 44 -72 86 -4 33 -1 45 21 71
15 17 43 35 64 41 32 9 24 10 -53 9 -49 0 -196 -4 -325 -9z m400 -767 c0 -11
-59 -36 -67 -28 -3 4 0 13 7 22 13 16 60 21 60 6z m-570 -62 c0 -20 -15 -26
-25 -9 -9 15 3 43 15 35 5 -3 10 -15 10 -26z"/>
<path d="M5305 8143 c-143 -7 -266 -16 -272 -18 -10 -3 -13 -53 -13 -205 l0
-200 36 0 c49 0 94 -45 94 -94 0 -51 -45 -100 -92 -100 l-35 0 -7 -110 c-3
-61 -6 -171 -6 -245 l0 -133 313 7 c171 4 313 9 315 10 5 4 20 280 31 560 6
143 13 324 17 403 l6 142 -64 -1 c-34 -1 -180 -8 -323 -16z m-225 -138 c0 -8
-7 -15 -15 -15 -8 0 -15 7 -15 15 0 8 7 15 15 15 8 0 15 -7 15 -15z m341 -185
c11 -6 19 -21 19 -35 0 -20 -24 -45 -44 -45 -10 0 -36 32 -36 45 0 13 26 45
36 45 3 0 14 -5 25 -10z m112 -242 c43 -34 23 -100 -35 -113 -53 -13 -90 64
-51 107 19 21 62 24 86 6z m-353 -128 c22 -40 -27 -83 -70 -60 -23 12 -24 18
-10 54 12 33 64 37 80 6z"/>
<path d="M4656 8111 l-310 -16 3 -70 c1 -38 4 -83 6 -100 5 -33 29 -384 46
-690 6 -110 13 -202 15 -204 6 -6 405 -2 485 5 l66 6 7 254 c6 221 5 257 -9
276 -19 28 -20 77 -1 103 17 25 27 447 11 450 -5 1 -149 -5 -319 -14z m219
-82 c7 -10 -21 -38 -37 -39 -13 0 -9 38 5 43 19 8 25 8 32 -4z m-5 -559 c11
-11 20 -29 20 -40 0 -24 -42 -70 -64 -70 -23 0 -76 50 -76 71 0 29 36 59 70
59 17 0 39 -9 50 -20z m20 -234 c0 -7 -7 -19 -15 -26 -19 -16 -41 1 -32 24 8
20 47 21 47 2z"/>
<path d="M2000 7893 c-138 -18 -623 -93 -626 -96 0 -1 1 -53 4 -115 l5 -113
23 22 c21 20 54 21 54 1 0 -18 -49 -54 -65 -48 -14 5 -15 -5 -10 -82 3 -48 10
-186 15 -306 6 -121 12 -222 15 -224 3 -4 331 13 668 34 l97 6 0 372 c0 204
-3 415 -7 469 l-6 97 -31 -1 c-17 -1 -78 -8 -136 -16z m-392 -526 c2 -11 -3
-17 -17 -17 -23 0 -35 15 -26 31 10 15 39 6 43 -14z m252 -126 c0 -11 -26 -22
-34 -14 -12 12 -5 23 14 23 11 0 20 -4 20 -9z m-122 -88 c-5 -25 -28 -28 -28
-4 0 12 6 21 16 21 9 0 14 -7 12 -17z"/>
<path d="M1142 7760 c-85 -16 -156 -30 -158 -33 -5 -5 74 -809 80 -814 8 -9
291 13 291 22 -2 113 -27 782 -31 813 -3 24 -10 42 -17 41 -7 0 -81 -13 -165
-29z m135 -175 c7 -20 -24 -55 -43 -48 -14 5 -19 44 -7 56 12 13 44 7 50 -8z"/>
<path d="M905 7715 c-5 -2 -63 -15 -127 -30 -65 -15 -118 -30 -118 -34 0 -5
12 -6 26 -3 45 8 94 -35 94 -83 0 -29 -45 -68 -78 -67 -22 0 -32 -4 -32 -14 0
-9 10 -14 27 -14 14 0 41 -11 58 -25 18 -13 35 -22 38 -18 10 10 57 -7 77 -27
29 -29 26 -84 -5 -115 -26 -27 -54 -31 -86 -14 -14 7 -30 7 -54 -1 -34 -11
-35 -14 -35 -61 0 -37 5 -53 20 -66 24 -21 25 -31 6 -52 -11 -13 -13 -34 -7
-98 3 -45 10 -85 13 -89 4 -3 71 -3 150 1 l144 7 -41 401 c-22 224 -44 401
-50 403 -5 1 -14 1 -20 -1z m25 -195 c28 -28 26 -66 -5 -86 -32 -21 -68 -12
-83 21 -13 29 -4 57 26 74 25 15 40 13 62 -9z m48 -384 c4 -21 -14 -37 -35
-29 -14 5 -18 35 -6 47 12 12 38 1 41 -18z"/>
<path d="M5240 7020 l-235 -5 -9 -183 c-5 -100 -6 -185 -3 -188 6 -6 606 54
618 62 4 2 10 43 13 91 4 49 9 121 12 161 6 68 5 72 -14 72 -20 0 -20 -1 -5
-31 19 -39 6 -75 -34 -90 -56 -22 -105 33 -77 86 18 35 18 35 -8 33 -13 -1
-129 -5 -258 -8z m261 -240 c21 -12 25 -50 7 -68 -7 -7 -24 -12 -38 -12 -32 0
-50 17 -50 47 0 36 42 53 81 33z"/>
<path d="M4488 7003 l-77 -4 5 -147 c3 -81 7 -175 10 -209 5 -58 7 -63 29 -63
49 0 480 52 487 58 3 4 9 89 13 190 l8 182 -199 -2 c-110 -1 -234 -4 -276 -5z"/>
<path d="M2030 6943 c-199 -9 -615 -34 -617 -37 -4 -4 35 -828 39 -831 2 -1
94 19 205 45 111 26 277 63 368 81 l165 34 0 311 c0 171 -3 332 -6 358 l-7 46
-41 -2 c-22 -1 -70 -3 -106 -5z"/>
<path d="M1203 6900 c-73 -3 -134 -8 -136 -11 -4 -4 81 -880 86 -885 3 -4 237
52 241 57 2 4 -14 382 -31 698 -5 83 -12 145 -18 146 -5 1 -70 -1 -142 -5z
m156 -494 c15 -18 3 -46 -19 -46 -10 0 -21 7 -24 16 -6 16 9 44 24 44 4 0 13
-6 19 -14z"/>
<path d="M725 6818 c24 -261 46 -462 52 -471 3 -5 7 -51 8 -100 2 -66 6 -92
16 -96 8 -2 26 -17 41 -32 40 -39 38 -90 -2 -131 -33 -33 -34 -74 -2 -64 9 3
72 18 140 35 68 16 125 31 127 32 2 2 -17 198 -41 434 -24 237 -44 438 -44
448 0 15 -14 17 -151 17 l-151 0 7 -72z m228 -212 c7 -17 -1 -26 -24 -26 -21
0 -33 15 -24 30 9 15 42 12 48 -4z m-143 -9 c0 -7 -6 -22 -14 -33 -20 -27 -43
-6 -27 25 13 23 41 29 41 8z m105 -192 c0 -23 -30 -32 -50 -15 -21 18 -7 42
24 38 18 -2 26 -9 26 -23z m55 -93 c38 -47 15 -108 -47 -126 -26 -8 -78 16
-87 39 -12 33 -6 72 17 92 40 38 85 36 117 -5z"/>
<path d="M5585 6650 c-17 -19 -20 -19 -42 -5 -21 14 -48 13 -285 -11 -145 -15
-266 -29 -269 -33 -4 -3 -12 -76 -19 -161 -6 -85 -18 -217 -26 -294 -8 -76
-13 -140 -11 -142 10 -10 97 32 97 46 0 9 7 25 15 36 8 10 15 27 15 36 0 25
38 48 63 39 21 -8 31 -21 41 -54 5 -15 12 -14 70 15 78 38 91 67 45 105 -37
32 -39 79 -4 117 31 34 74 34 113 1 17 -14 35 -25 41 -25 7 0 14 -7 17 -15 10
-24 22 -18 54 27 36 50 37 58 6 58 -54 0 -95 95 -66 151 23 41 88 58 142 35
14 -6 18 0 23 39 9 55 4 62 -20 35z m-349 -136 c-5 -13 -10 -14 -18 -6 -6 6
-8 18 -4 28 5 13 10 14 18 6 6 -6 8 -18 4 -28z m-177 3 c8 -10 7 -17 -1 -25
-26 -26 -60 -4 -38 23 15 18 24 19 39 2z m119 -138 c4 -22 -25 -50 -43 -43
-15 6 -21 45 -8 58 12 12 48 2 51 -15z"/>
<path d="M4663 6572 l-233 -26 0 -362 0 -363 68 23 c55 19 68 27 70 47 3 23
27 49 44 49 4 0 17 -9 27 -19 17 -17 24 -18 56 -8 26 8 34 15 30 26 -22 54
-18 80 18 116 41 41 81 46 121 14 15 -12 29 -20 31 -17 4 4 45 471 45 517 0
37 28 37 -277 3z m22 -357 c0 -13 -8 -21 -24 -23 -28 -4 -46 11 -37 33 9 25
61 16 61 -10z"/>
<path d="M2100 6195 c-30 -7 -184 -41 -342 -76 -158 -34 -292 -65 -298 -69 -8
-5 -8 -77 0 -241 5 -129 10 -283 10 -344 1 -135 2 -136 147 -159 140 -22 134
-24 110 25 -26 52 -15 95 32 126 46 31 84 29 123 -6 27 -24 32 -36 32 -72 0
-24 -3 -51 -7 -60 -7 -13 -3 -16 15 -13 13 2 75 8 140 15 l116 11 6 102 c10
182 17 691 10 734 -7 47 -8 47 -94 27z m-192 -168 c4 -20 -25 -34 -40 -19 -15
15 -1 44 19 40 10 -2 19 -11 21 -21z m-197 -456 c22 -18 22 -21 9 -35 -8 -9
-29 -18 -46 -22 -26 -5 -32 -2 -36 14 -7 24 17 62 36 62 8 0 24 -9 37 -19z
m124 -50 c7 -12 -12 -24 -25 -16 -11 7 -4 25 10 25 5 0 11 -4 15 -9z m252 -73
c31 -29 30 -71 -3 -97 -33 -26 -58 -27 -84 -1 -40 40 -12 120 42 120 12 0 32
-10 45 -22z"/>
<path d="M1251 6004 c-51 -13 -94 -24 -96 -26 -1 -2 11 -127 26 -278 16 -151
28 -280 29 -286 0 -6 42 -23 93 -38 50 -15 98 -30 106 -32 14 -5 13 148 -6
549 l-6 137 -26 -1 c-14 -1 -68 -12 -120 -25z m124 -515 c10 -16 -26 -50 -49
-47 -30 4 -33 36 -4 47 31 13 46 13 53 0z"/>
<path d="M963 5936 c-72 -17 -134 -34 -137 -37 -3 -3 2 -67 12 -142 18 -135
18 -138 52 -166 22 -18 39 -26 44 -20 6 5 15 9 22 9 7 0 28 16 48 36 31 31 41
36 74 32 20 -3 44 -8 52 -12 14 -6 14 11 -2 156 -9 90 -17 166 -17 171 -1 9 6
10 -148 -27z"/>
<path d="M1131 5461 l-24 -18 32 -11 c27 -9 31 -9 31 6 0 34 -14 42 -39 23z"/>
</g>
</svg>
